<?xml version="1.0" encoding="UTF-8"?>
<svg version="1.1" xmlns="http://www.w3.org/2000/svg" width="500" height="500">
<path d="M0 0 C165 0 330 0 500 0 C500 165 500 330 500 500 C335 500 170 500 0 500 C0 335 0 170 0 0 Z " fill="#000000" transform="translate(0,0)"/>
<path d="M0 0 C4.95 0.33 9.9 0.66 15 1 C15 11.23 15 21.46 15 32 C14.34 32 13.68 32 13 32 C12.91363281 31.443125 12.82726562 30.88625 12.73828125 30.3125 C11.51126322 23.64832869 9.52171564 17.80881774 4.0703125 13.4609375 C2.08132601 12.17747829 0.12658194 11.03912527 -2 10 C-2.73863281 9.63390625 -3.47726563 9.2678125 -4.23828125 8.890625 C-12.56313429 6.20594821 -24.06810032 6.85965424 -31.921875 10.6796875 C-38.46299029 14.83550887 -43.18259165 20.37757556 -45 28 C-45.88242028 36.13325111 -46.32156377 44.09420693 -41.52734375 51.1328125 C-35.78709093 58.15030827 -28.79200168 63.38326273 -21.58056641 68.79980469 C-18.57661049 71.08084381 -15.64473452 73.45488909 -12.70703125 75.8203125 C-11.07161096 77.18950818 -11.07161096 77.18950818 -9 77 C-7.50174677 75.47970115 -7.50174677 75.47970115 -5.9375 73.5 C8.63936816 56.49864248 29.81998294 46.21976351 52.08688354 43.77044678 C56.21955752 43.48907897 60.34177663 43.4706918 64.48217773 43.53344727 C66.56640037 43.56255447 68.64807927 43.55395579 70.73242188 43.54101562 C83.71447556 43.55855186 96.00136077 45.5218224 107.9375 50.875 C108.70900391 51.20113281 109.48050781 51.52726562 110.27539062 51.86328125 C111.80207396 52.5254882 113.31472197 53.2211774 114.81005859 53.95141602 C116.97651284 55.03949281 116.97651284 55.03949281 119.25634766 55.78100586 C121.87030474 56.90487111 123.20654649 57.76594027 125 60 C126.58682625 65.53974799 127.04041432 71.08622998 127.5 76.8125 C127.65286877 78.37989075 127.80908498 79.94695885 127.96875 81.51367188 C128.35133454 85.3398015 128.68789406 89.16750398 129 93 C128.01 93 127.02 93 126 93 C125.81566406 92.28457031 125.63132812 91.56914062 125.44140625 90.83203125 C121.46442482 77.16889062 114.20987649 67.31203129 102 60 C101.18660156 59.50886719 100.37320313 59.01773438 99.53515625 58.51171875 C83.84965383 49.89359019 61.0774253 48.92739702 44.03515625 53.8359375 C28.06853066 59.95955967 14.86997979 68.68310624 5 83 C3.76832015 85.69216818 3.76832015 85.69216818 3 88 C3.71285156 88.58007812 4.42570312 89.16015625 5.16015625 89.7578125 C8.11209321 92.16544883 11.05688241 94.58159372 14 97 C14.75539063 97.61488281 15.51078125 98.22976562 16.2890625 98.86328125 C17.89774231 100.19722768 19.45522754 101.59254065 21 103 C21 103.66 21 104.32 21 105 C22.28132813 104.94199219 23.56265625 104.88398438 24.8828125 104.82421875 C41.95067483 104.27967582 53.83885744 107.33531389 67 119 C78.03224149 129.45564351 84.33381963 143.25667383 90.375 156.9375 C91.02331341 158.38848521 91.67249344 159.8390835 92.32250977 161.28930664 C93.61305504 164.17041324 94.89944338 167.05332082 96.18310547 169.9375 C97.82813661 173.62591647 99.50350384 177.29972384 101.19140625 180.96875 C101.66078613 181.98976807 102.13016602 183.01078613 102.61376953 184.06274414 C103.4760016 185.93526029 104.34016303 187.80688962 105.20654297 189.67749023 C105.58053223 190.49419189 105.95452148 191.31089355 106.33984375 192.15234375 C106.66331787 192.85351318 106.98679199 193.55468262 107.32006836 194.27709961 C108 196 108 196 108 198 C112.48098377 196.26657166 116.40537891 194.13871179 119 190 C120.79909951 183.40670132 120.326671 176.36040548 120.10449219 169.59057617 C119.99992665 166.31019894 119.98147441 163.03775153 119.9765625 159.75585938 C119.94773797 157.66659122 119.91405115 155.57738328 119.875 153.48828125 C119.86629883 152.51111649 119.85759766 151.53395172 119.84863281 150.5271759 C119.67038101 145.8851422 119.51680515 143.67054134 116.61254883 139.90234375 C113.8466 137.88830083 112.04713861 137.180247 108.6875 136.6875 C107.36298828 136.47673828 107.36298828 136.47673828 106.01171875 136.26171875 C105.34785156 136.17535156 104.68398438 136.08898437 104 136 C104 135.34 104 134.68 104 134 C119.51 134 135.02 134 151 134 C151 134.99 151 135.98 151 137 C149.98679687 137.03867187 149.98679687 137.03867187 148.953125 137.078125 C148.06109375 137.13484375 147.1690625 137.1915625 146.25 137.25 C145.36828125 137.29640625 144.4865625 137.3428125 143.578125 137.390625 C140.26228865 138.17436814 139.14735787 139.38450823 137 142 C136.41373296 144.40463743 136.41373296 144.40463743 136.51416016 147.03710938 C136.5080069 148.03915405 136.50185364 149.04119873 136.49551392 150.0736084 C136.50988495 151.15275513 136.52425598 152.23190186 136.5390625 153.34375 C136.53997894 154.46382446 136.54089539 155.58389893 136.5418396 156.73791504 C136.54788338 159.11177802 136.56365243 161.4856331 136.58837891 163.859375 C136.62458382 167.45862597 136.62940013 171.05683701 136.62890625 174.65625 C136.63874987 176.96875874 136.65041225 179.28126059 136.6640625 181.59375 C136.66628815 182.65670288 136.66851379 183.71965576 136.67080688 184.81481934 C136.79602803 194.89615894 137.85670069 204.45954231 142.0625 213.6875 C142.58972656 214.86699219 143.11695313 216.04648437 143.66015625 217.26171875 C144.74432381 219.85244736 144.74432381 219.85244736 146 221 C156.24084044 198.43122779 166.44807888 175.84888263 176.48550415 153.18878174 C177.0792735 151.84963893 177.67427549 150.51104189 178.27059937 149.17303467 C179.92118415 145.46417311 181.53900199 141.74375752 183.12744141 138.0078125 C183.48465775 137.17809937 183.84187408 136.34838623 184.20991516 135.49353027 C184.90337338 133.88210844 185.58844977 132.26704727 186.26408386 130.64807129 C187.09565642 128.72851318 188.03943248 126.85836657 189 125 C190.485 124.505 190.485 124.505 192 124 C194.66102573 131.9830772 195.40426151 140.32920997 196.46484375 148.64453125 C197.38779307 155.80692306 198.46932266 162.91809754 199.75146484 170.02392578 C202.66060356 186.15247992 205.38035105 202.31967143 207.45703125 218.578125 C208.44792061 226.27967155 209.63101981 233.90569771 211.03491211 241.54223633 C212 246.8138658 212 246.8138658 212 249 C212.88751953 248.7834375 212.88751953 248.7834375 213.79296875 248.5625 C217.92529941 247.59177306 221.7229762 246.72406298 226 247 C226 247.99 226 248.98 226 250 C224.39743892 250.50512244 222.79288208 251.00391627 221.1875 251.5 C219.84751953 251.91765625 219.84751953 251.91765625 218.48046875 252.34375 C216 253 216 253 213 253 C216.85388749 270.45584333 222.25331813 289.17814341 237.89453125 299.76171875 C245.92286465 304.48339164 253.46610995 308.04894551 262.875 308.625 C264.02742188 308.69976562 265.17984375 308.77453125 266.3671875 308.8515625 C267.23601562 308.90054687 268.10484375 308.94953125 269 309 C269 309.99 269 310.98 269 312 C251.57693786 312.58054545 237.74371075 312.37035428 223 302 C222.38769531 301.57203125 221.77539062 301.1440625 221.14453125 300.703125 C207.92544351 290.41825124 200.92120192 273.82320304 197 258 C197 257.01 197 256.02 197 255 C196.4016333 255.02094727 195.8032666 255.04189453 195.18676758 255.06347656 C178.51769995 255.56932746 166.32797346 253.85105575 151.6796875 245.48828125 C149.02390424 243.90565315 149.02390424 243.90565315 146 243 C144.37961581 246.57620836 142.78186477 250.16212489 141.1875 253.75 C140.50977539 255.24466797 140.50977539 255.24466797 139.81835938 256.76953125 C136.74662805 263.72016419 134.6037732 270.57356335 133 278 C132.01 278 131.02 278 130 278 C123.11554356 263.87878669 116.42873883 249.68057457 109.9375 235.375 C109.61280731 234.65990265 109.28811462 233.9448053 108.95358276 233.20803833 C105.908778 226.4971247 102.88636563 219.78082299 100 213 C98.25976562 213.433125 98.25976562 213.433125 96.484375 213.875 C87.54024749 216.02619208 79.26884515 217.65427142 70 217 C69.92652344 218.40572266 69.92652344 218.40572266 69.8515625 219.83984375 C69.29680968 229.99835448 68.53626561 240.13128643 67.66064453 250.26733398 C66.30395281 260.39350522 66.30395281 260.39350522 68.5625 269.9375 C71.66603579 272.56356875 74.0009094 272.76928323 78 273 C78 273.66 78 274.32 78 275 C64.14 275 50.28 275 36 275 C36 274.34 36 273.68 36 273 C36.66386719 272.89042969 37.32773438 272.78085937 38.01171875 272.66796875 C45.05322612 271.57683391 45.05322612 271.57683391 51 268 C56.14716986 260.1261672 56.30175876 250.46201444 57.1875 241.375 C57.35210893 239.78891588 57.51811452 238.20297606 57.68554688 236.6171875 C57.92191026 234.37808023 58.15646683 232.13901113 58.37944031 229.89852905 C58.81144404 225.57732457 59.35849108 221.29373978 60 217 C59.11441406 216.98582031 58.22882813 216.97164062 57.31640625 216.95703125 C40.06985346 216.29301205 21.6467036 211.1521591 8.30078125 199.6796875 C6.16295466 197.76995488 6.16295466 197.76995488 3.68359375 198.01171875 C2.94238281 198.23472656 2.20117188 198.45773437 1.4375 198.6875 C0.69371094 198.89761719 -0.05007812 199.10773438 -0.81640625 199.32421875 C-1.53699219 199.54722656 -2.25757813 199.77023437 -3 200 C-8.67703161 201.714492 -14.68905408 201.225817 -20.5625 201.25 C-22.40038086 201.2809375 -22.40038086 201.2809375 -24.27539062 201.3125 C-40.82313843 201.38302849 -54.59271156 196.21174898 -66.58984375 184.62890625 C-77.22798333 173.0252305 -79.92444852 159.04164411 -79.37890625 143.74609375 C-78.6521927 132.18929807 -73.27237902 120.02984958 -65.0625 111.75 C-64.381875 111.1725 -63.70125 110.595 -63 110 C-61.515 110.495 -61.515 110.495 -60 111 C-60.53109375 111.85980469 -61.0621875 112.71960938 -61.609375 113.60546875 C-70.26756584 127.93076465 -75.32438779 143.24760427 -71.52246094 160.11914062 C-67.9080476 172.06397283 -60.36489718 179.91475629 -50.1015625 186.4921875 C-42.35515027 190.25807556 -35.05798101 191.48876932 -26.5 191.375 C-25.62730469 191.38660156 -24.75460938 191.39820313 -23.85546875 191.41015625 C-17.47463343 191.38179698 -12.00355234 190.12316822 -6 188 C-6.38857178 187.50991455 -6.77714355 187.0198291 -7.17749023 186.51489258 C-22.35838873 167.17015166 -29.05340778 144.46777238 -27 120 C-25.68302619 110.79029105 -23.22835821 101.71656718 -20 93 C-21.42234583 91.88244256 -22.84473963 90.76494614 -24.26733398 89.64770508 C-25.52023886 88.66286816 -26.77233752 87.67700482 -28.02368164 86.69018555 C-31.26489921 84.1364377 -34.51601211 81.5991153 -37.80078125 79.1015625 C-47.36664929 71.79627885 -54.59390804 65.41793723 -59 54 C-59.33 53.34 -59.66 52.68 -60 52 C-61.4207533 36.84203205 -59.72571034 24.77467273 -50.26171875 12.51171875 C-46.62933073 8.47782325 -42.73257284 5.62682776 -38 3 C-37.23816406 2.566875 -36.47632813 2.13375 -35.69140625 1.6875 C-25.30441227 -3.09882683 -11.00933042 -2.20186608 0 0 Z " fill="#F8F8F8" transform="translate(163,112)"/>
<path d="M0 0 C11.2947376 0.04900103 19.76544307 5.13623375 27.87109375 12.734375 C31.72531068 16.83611045 34.90185268 21.3123684 38 26 C38.53109375 26.7528125 39.0621875 27.505625 39.609375 28.28125 C46.49901275 38.96405909 42.4182271 53.68451312 40.97363281 65.61767578 C40.62585067 68.49296707 40.28862297 71.36934582 39.953125 74.24609375 C38.85736621 83.53986318 37.70025167 92.79411116 36 102 C18.52264454 99.85940171 5.65686111 95.39757792 -8 84 C-6.58298466 80.71772977 -4.88057051 78.77106229 -2.25 76.375 C7.81325862 66.51227733 13.02893316 53.04682236 13.3125 39.0625 C13.34458094 24.58152179 7.40845004 12.1568928 0 0 Z " fill="#020202" transform="translate(188,220)"/>
<path d="M0 0 C0.33 0 0.66 0 1 0 C6.09455937 34.32856209 6.09455937 34.32856209 8.2421875 50.39453125 C8.8309478 54.79077036 9.44754477 59.18267011 10.0703125 63.57421875 C10.25720421 64.89996623 10.44397167 66.22573123 10.63061523 67.55151367 C10.99413055 70.1289504 11.36069181 72.7059599 11.73071289 75.2824707 C11.89563232 76.45769287 12.06055176 77.63291504 12.23046875 78.84375 C12.37895264 79.88724609 12.52743652 80.93074219 12.68041992 82.00585938 C13.00300788 85.0281808 13.05585234 87.96299358 13 91 C-3.365104 90.17174866 -16.85801499 85.75768378 -29.55078125 75.125 C-31 73 -31 73 -30.83447266 70.44116211 C-29.75062384 65.9716334 -27.99010708 61.99713782 -26.09765625 57.81640625 C-25.70387283 56.93144974 -25.31008942 56.04649323 -24.90437317 55.13471985 C-23.63008799 52.27443504 -22.34638234 49.41848804 -21.0625 46.5625 C-20.19018048 44.60921591 -19.31859909 42.65560201 -18.44775391 40.70166016 C-17.15616902 37.80381996 -15.86416652 34.906178 -14.56951904 32.00970459 C-10.87028394 23.73075617 -7.24948208 15.41998562 -3.67993164 7.08422852 C-1.103627 1.103627 -1.103627 1.103627 0 0 Z " fill="#030303" transform="translate(346,270)"/>
<path d="M0 0 C11.6429038 4.01194198 18.92667259 15.19854243 24.3828125 25.6484375 C28.55256605 35.35842303 28.63648342 48.08231795 25 58 C19.42711564 70.77891006 19.42711564 70.77891006 14 75 C13.34 75 12.68 75 12 75 C-1.89792105 52.92885987 -6.39097247 28.19779883 -0.65625 2.68359375 C-0.4396875 1.79800781 -0.223125 0.91242188 0 0 Z " fill="#030303" transform="translate(157,217)"/>
<path d="M0 0 C3.32487309 2.72138585 4.75721826 6.36755943 6.46875 10.1953125 C6.79033081 10.90219208 7.11191162 11.60907166 7.4432373 12.33737183 C8.12215354 13.83379268 8.79773747 15.33172924 9.47021484 16.83105469 C10.4886144 19.09963749 11.51877439 21.36258037 12.55078125 23.625 C15.73788117 30.65444241 18.78256237 37.59174247 21 45 C18.14879208 45.84480235 15.29472656 46.67601416 12.4375 47.5 C11.63763672 47.73847656 10.83777344 47.97695313 10.01367188 48.22265625 C5.16705671 49.60740344 1.039353 50.27056929 -4 50 C-4.19190003 41.62314667 -3.5379849 33.38032615 -2.77319336 25.04882812 C-2.56170447 22.7413202 -2.35749148 20.43325164 -2.15429688 18.125 C-2.02125759 16.64058692 -1.88780847 15.15621049 -1.75390625 13.671875 C-1.6934462 12.99050476 -1.63298615 12.30913452 -1.57069397 11.6071167 C-1.20916911 7.70193202 -0.69354454 3.85992119 0 0 Z " fill="#080808" transform="translate(238,272)"/>
<path d="M0 0 C0.43570312 1.18335938 0.87140625 2.36671875 1.3203125 3.5859375 C6.70567486 18.48894808 6.70567486 18.48894808 16.0625 31.0625 C18 34 18 34 17.74609375 36.1171875 C16.97839585 38.50468776 16.05139405 40.72394846 15 43 C14.43707704 44.3539909 13.87453233 45.70813917 13.3125 47.0625 C12.6628125 48.5165625 12.6628125 48.5165625 12 50 C8.63970748 47.26688537 7.23496317 43.56236628 5.53125 39.69921875 C5.04887878 38.62822685 5.04887878 38.62822685 4.5567627 37.53559875 C3.5313964 35.25572646 2.5154138 32.97181995 1.5 30.6875 C0.48267254 28.41479336 -0.53657414 26.1429599 -1.5567627 23.87153625 C-2.18995644 22.46002699 -2.82117305 21.04762854 -3.45007324 19.63420105 C-4.80636716 16.59587409 -6.19649038 13.61589715 -7.71289062 10.65161133 C-9 8 -9 8 -9.0625 5.875 C-7.22790695 2.63748285 -3.79649274 0 0 0 Z " fill="#070707" transform="translate(285,313)"/>
</svg>
